<svg width="24" height="24" viewBox="0 0 24 24" fill="none" xmlns="http://www.w3.org/2000/svg">
<g clip-path="url(#clip0_1659_6322)">
<path d="M4.54102 15.9609C5.00701 15.9609 5.38477 15.5832 5.38477 15.1172C5.38477 14.6512 5.00701 14.2734 4.54102 14.2734C4.07503 14.2734 3.69727 14.6512 3.69727 15.1172C3.69727 15.5832 4.07503 15.9609 4.54102 15.9609Z" fill="#262626"/>
<path d="M8.56543 15.9609C9.03142 15.9609 9.40918 15.5832 9.40918 15.1172C9.40918 14.6512 9.03142 14.2734 8.56543 14.2734C8.09944 14.2734 7.72168 14.6512 7.72168 15.1172C7.72168 15.5832 8.09944 15.9609 8.56543 15.9609Z" fill="#262626"/>
<path d="M5.07864 17.8729C5.34152 18.3548 5.87289 18.7849 6.55314 18.7849C7.23339 18.7849 7.76439 18.3552 8.02727 17.8729C8.09814 17.7432 8.00439 17.6033 7.89977 17.6839C7.03239 18.3593 6.06939 18.3548 5.20539 17.6839C5.10114 17.6037 5.00739 17.7436 5.07864 17.8729Z" fill="#262626"/>
<path d="M20.3685 19.1059C21.246 18.4418 21.9818 17.5369 22.1681 16.4779C22.692 16.3969 23.25 16.0624 23.25 15.0068C23.25 14.0771 22.9072 13.7989 22.6174 13.7299C22.587 9.9165 21.6562 8.2905 17.4818 8.25113C13.2727 8.211 12.1639 9.90713 12.1238 13.7775C12.0796 13.7998 12.0381 13.827 12 13.8585V13.7512C12 9.10275 8.95425 9.18975 8.95425 9.18975C8.95425 9.18975 8.72512 8.25 6.37537 8.25C2.73675 8.25 0.75 10.6237 0.75 13.7512V23.25H23.25V20.5406C23.25 19.8259 22.017 19.3481 20.3685 19.1059ZM2.20988 13.7666C4.46738 13.7666 8.14538 10.8304 8.14538 10.8304C8.14538 10.8304 9.5355 13.4224 10.8773 13.7666C10.8773 13.7666 11.5279 13.8859 11.5279 14.9152C11.5279 16.1524 10.6605 16.3661 10.6605 16.3661C10.6496 18.2333 8.10075 20.1101 6.55425 20.1101C5.00588 20.1101 2.41463 18.2329 2.41463 16.3661C2.41463 16.3661 1.57875 16.1524 1.57875 14.9152C1.57875 13.935 2.20988 13.7666 2.20988 13.7666ZM11.8125 22.8829L1.12463 22.875V20.5406C1.12463 20.1604 2.0955 19.6755 3.94125 19.4389C4.79962 20.0775 5.78963 20.4847 6.55425 20.4847C7.29375 20.4847 8.24925 20.094 9.08887 19.4775C10.752 19.7257 11.8129 20.4525 11.8129 20.8125L11.8125 22.8829ZM11.9887 15.0068C11.9887 14.3948 12.1376 14.0842 12.4324 14.0842C12.4519 14.0842 12.4714 14.0854 12.4913 14.0876C12.5303 14.3119 12.576 14.4735 12.6304 14.5804C12.7646 14.8418 13.02 14.9846 13.0489 15L13.3631 15.1691L13.3129 14.8073C13.2735 14.4669 13.2606 14.124 13.2743 13.7816C13.3987 11.8969 13.5184 11.6456 13.9279 11.6456C14.1139 11.6456 14.3693 11.6978 14.6929 11.763C15.3232 11.8909 16.1861 12.066 17.4368 12.066C18.6874 12.066 19.5506 11.8909 20.1806 11.763C20.5042 11.6974 20.7596 11.6456 20.946 11.6456C21.3559 11.6456 21.4755 11.8976 21.5985 13.7812C21.6203 14.3726 21.5614 14.8031 21.5606 14.8073L21.51 15.1699L21.8254 15C21.8542 14.9846 22.1089 14.8418 22.2435 14.5804C22.2986 14.4728 22.344 14.3145 22.3837 14.0876C22.7134 14.0516 22.8862 14.355 22.8862 15.0068C22.8862 15.7215 22.6035 16.0755 21.9967 16.1209L21.8483 16.1318L21.8291 16.2833C21.5483 18.5104 18.6045 19.9226 17.4368 19.9226C16.269 19.9226 13.3252 18.5104 13.0451 16.2833L13.026 16.1318L12.8775 16.1209C12.2715 16.0751 11.9887 15.7215 11.9887 15.0068ZM12 16.1348C12.201 16.3395 12.4571 16.4393 12.7069 16.4779C12.8977 17.5639 13.6658 18.4879 14.5725 19.1565C13.0826 19.4115 12 19.8713 12 20.5406V16.1348ZM22.8746 22.875L12.1875 22.8754V20.8129C12.1875 20.1683 13.3778 19.695 15.0225 19.464C15.8798 19.9946 16.7948 20.2976 17.4371 20.2976C18.0953 20.2976 19.0387 19.9781 19.9136 19.4235C21.7451 19.6406 22.8746 20.1015 22.8746 20.5406V22.875Z" fill="#262626"/>
<path d="M15.3779 15.9609C15.8439 15.9609 16.2217 15.5832 16.2217 15.1172C16.2217 14.6512 15.8439 14.2734 15.3779 14.2734C14.9119 14.2734 14.5342 14.6512 14.5342 15.1172C14.5342 15.5832 14.9119 15.9609 15.3779 15.9609Z" fill="#262626"/>
<path d="M19.5029 15.9609C19.9689 15.9609 20.3467 15.5832 20.3467 15.1172C20.3467 14.6512 19.9689 14.2734 19.5029 14.2734C19.0369 14.2734 18.6592 14.6512 18.6592 15.1172C18.6592 15.5832 19.0369 15.9609 19.5029 15.9609Z" fill="#262626"/>
<path d="M15.9649 17.8708C16.2278 18.3526 16.7595 18.7828 17.4401 18.7828C18.1208 18.7828 18.6521 18.353 18.9154 17.8708C18.9863 17.741 18.8918 17.6011 18.7879 17.6818C17.9201 18.3571 16.956 18.3526 16.092 17.6818C15.9878 17.6015 15.894 17.7414 15.9649 17.8708ZM11.9989 9.74976C12.4493 9.34401 18.7403 6.06801 17.451 2.65476C16.2529 -0.517364 12.3593 0.90576 11.9989 2.49014C11.5039 0.801885 7.70777 -0.456989 6.54902 2.65626C5.25902 6.12576 11.5493 9.24013 11.9989 9.74976Z" fill="#262626"/>
</g>
<defs>
<clipPath id="clip0_1659_6322">
<rect width="24" height="24" fill="white"/>
</clipPath>
</defs>
</svg>
